<?xml version="1.0" encoding="utf-8"?>
<!-- Generator: Adobe Illustrator 16.0.0, SVG Export Plug-In . SVG Version: 6.00 Build 0)  -->
<!DOCTYPE svg PUBLIC "-//W3C//DTD SVG 1.1//EN" "http://www.w3.org/Graphics/SVG/1.1/DTD/svg11.dtd" [
	<!ENTITY ns_flows "http://ns.adobe.com/Flows/1.0/">
	<!ENTITY ns_extend "http://ns.adobe.com/Extensibility/1.0/">
	<!ENTITY ns_ai "http://ns.adobe.com/AdobeIllustrator/10.0/">
	<!ENTITY ns_graphs "http://ns.adobe.com/Graphs/1.0/">
]>
<svg version="1.1" id="Layer_1" xmlns:x="&ns_extend;" xmlns:i="&ns_ai;" xmlns:graph="&ns_graphs;"
	 xmlns="http://www.w3.org/2000/svg" xmlns:xlink="http://www.w3.org/1999/xlink" xmlns:a="http://ns.adobe.com/AdobeSVGViewerExtensions/3.0/"
	 x="0px" y="0px" width="94.833px" height="18.236px" viewBox="0 0 94.833 18.236" enable-background="new 0 0 94.833 18.236"
	 xml:space="preserve">
<g>
	<g enable-background="new    ">
		<path fill="#FFFFFF" d="M52.925,15.636c-0.704,0.253-2.095,0.668-3.737,0.668c-1.841,0-3.357-0.469-4.548-1.606
			c-1.047-1.011-1.697-2.635-1.697-4.53c0.018-3.629,2.509-6.282,6.589-6.282c1.408,0,2.509,0.307,3.032,0.56l-0.379,1.282
			c-0.649-0.289-1.462-0.523-2.689-0.523c-2.96,0-4.892,1.841-4.892,4.892c0,3.087,1.859,4.91,4.694,4.91
			c1.028,0,1.732-0.145,2.094-0.325v-3.629h-2.473V9.789h4.007V15.636z"/>
		<path fill="#FFFFFF" d="M65.728,9.969c0,4.188-2.546,6.408-5.65,6.408c-3.213,0-5.47-2.491-5.47-6.173
			c0-3.863,2.401-6.391,5.65-6.391C63.58,3.813,65.728,6.358,65.728,9.969z M56.288,10.168c0,2.599,1.408,4.928,3.881,4.928
			c2.49,0,3.898-2.293,3.898-5.055c0-2.419-1.264-4.945-3.881-4.945C57.586,5.095,56.288,7.496,56.288,10.168z"/>
		<path fill="#FFFFFF" d="M67.772,4.156c0.758-0.126,1.752-0.234,3.015-0.234c1.553,0,2.69,0.361,3.411,1.011
			c0.668,0.578,1.066,1.462,1.066,2.546c0,1.101-0.326,1.967-0.939,2.599c-0.83,0.885-2.184,1.336-3.719,1.336
			c-0.469,0-0.902-0.018-1.264-0.108v4.874h-1.57V4.156z M69.342,10.023c0.344,0.09,0.777,0.126,1.301,0.126
			c1.895,0,3.05-0.92,3.05-2.6c0-1.606-1.138-2.382-2.87-2.382c-0.686,0-1.209,0.054-1.48,0.126V10.023z"/>
		<path fill="#FFFFFF" d="M77.83,12.351l-1.264,3.827h-1.624l4.133-12.166h1.896l4.151,12.166h-1.679l-1.3-3.827H77.83z
			 M81.819,11.124l-1.191-3.502c-0.271-0.794-0.451-1.516-0.632-2.22h-0.036c-0.18,0.722-0.379,1.462-0.613,2.202l-1.191,3.52
			H81.819z"/>
	</g>
	<g enable-background="new    ">
		<path fill="none" stroke="#36393F" stroke-width="1.9843" stroke-miterlimit="10" d="M52.925,15.636
			c-0.704,0.253-2.095,0.668-3.737,0.668c-1.841,0-3.357-0.469-4.548-1.606c-1.047-1.011-1.697-2.635-1.697-4.53
			c0.018-3.629,2.509-6.282,6.589-6.282c1.408,0,2.509,0.307,3.032,0.56l-0.379,1.282c-0.649-0.289-1.462-0.523-2.689-0.523
			c-2.96,0-4.892,1.841-4.892,4.892c0,3.087,1.859,4.91,4.694,4.91c1.028,0,1.732-0.145,2.094-0.325v-3.629h-2.473V9.789h4.007
			V15.636z"/>
		<path fill="none" stroke="#36393F" stroke-width="1.9843" stroke-miterlimit="10" d="M65.728,9.969
			c0,4.188-2.546,6.408-5.65,6.408c-3.213,0-5.47-2.491-5.47-6.173c0-3.863,2.401-6.391,5.65-6.391
			C63.58,3.813,65.728,6.358,65.728,9.969z M56.288,10.168c0,2.599,1.408,4.928,3.881,4.928c2.49,0,3.898-2.293,3.898-5.055
			c0-2.419-1.264-4.945-3.881-4.945C57.586,5.095,56.288,7.496,56.288,10.168z"/>
		<path fill="none" stroke="#36393F" stroke-width="1.9843" stroke-miterlimit="10" d="M67.772,4.156
			c0.758-0.126,1.752-0.234,3.015-0.234c1.553,0,2.69,0.361,3.411,1.011c0.668,0.578,1.066,1.462,1.066,2.546
			c0,1.101-0.326,1.967-0.939,2.599c-0.83,0.885-2.184,1.336-3.719,1.336c-0.469,0-0.902-0.018-1.264-0.108v4.874h-1.57V4.156z
			 M69.342,10.023c0.344,0.09,0.777,0.126,1.301,0.126c1.895,0,3.05-0.92,3.05-2.6c0-1.606-1.138-2.382-2.87-2.382
			c-0.686,0-1.209,0.054-1.48,0.126V10.023z"/>
		<path fill="none" stroke="#36393F" stroke-width="1.9843" stroke-miterlimit="10" d="M77.83,12.351l-1.264,3.827h-1.624
			l4.133-12.166h1.896l4.151,12.166h-1.679l-1.3-3.827H77.83z M81.819,11.124l-1.191-3.502c-0.271-0.794-0.451-1.516-0.632-2.22
			h-0.036c-0.18,0.722-0.379,1.462-0.613,2.202l-1.191,3.52H81.819z"/>
	</g>
	<g>
		<g>
			<g>
				<path fill="#D8D9DD" d="M35.558,1.783C31.57,5.355,25.187,7.102,19.14,7.717c1.147,5.158,5.475,8.871,10.047,8.427
					c4.843-0.47,8.121-5.427,7.322-11.068C36.347,3.904,36.016,2.801,35.558,1.783z"/>
				<path fill="#36393F" d="M35.446,2.193c-0.156,0.215-0.312,0.43-0.476,0.635c-0.241,0.299-0.461,0.594-0.745,0.859
					c-0.283,0.27-0.589,0.518-0.895,0.776c-0.307,0.246-0.614,0.547-0.946,0.729c-0.656,0.404-1.306,0.861-2.004,1.195
					c-0.701,0.317-1.404,0.666-2.13,0.922L27.153,7.67c-0.37,0.104-0.733,0.246-1.111,0.308c-0.752,0.146-1.508,0.282-2.274,0.328
					c-0.765,0.045-1.533,0.049-2.293,0.057c-0.765-0.029-1.521-0.041-2.271-0.033l0.539-0.746c0.046,0.32,0.104,0.642,0.167,0.959
					c0.096,0.312,0.177,0.627,0.296,0.931c0.243,0.604,0.545,1.184,0.927,1.709c0.379,0.524,0.807,1.014,1.303,1.418
					c0.478,0.422,1.022,0.758,1.564,1.049c0.267,0.153,0.561,0.254,0.831,0.383l0.846,0.283c0.569,0.143,1.122,0.289,1.68,0.315
					c0.554,0.066,1.104,0.023,1.639-0.045l0.025-0.002l0.012-0.002c-0.181,0.023-0.045,0.006-0.084,0.01h0.008l0.062-0.014
					l0.125-0.027l0.249-0.055c0.155-0.037,0.355-0.068,0.475-0.111c0.22-0.102,0.413-0.133,0.655-0.26
					c0.235-0.121,0.479-0.215,0.694-0.373c0.227-0.131,0.449-0.27,0.653-0.44c0.432-0.304,0.804-0.691,1.183-1.08l0.521-0.638
					c0.15-0.233,0.326-0.452,0.464-0.698c0.292-0.484,0.565-0.996,0.765-1.55c0.206-0.547,0.407-1.114,0.519-1.713
					c0.13-0.592,0.238-1.209,0.267-1.838l0.038-0.475l0.01-0.121c0.021,0.119,0.006,0.027,0.01,0.053V5.242l-0.001-0.016
					l-0.001-0.033l-0.002-0.064l-0.011-0.258c-0.019-0.344-0.026-0.688-0.03-1.035C35.589,3.264,35.503,2.76,35.446,2.193z
					 M35.706,1.717c0.2,0.287,0.409,0.586,0.601,0.9c0.193,0.309,0.41,0.643,0.523,0.957c0.139,0.316,0.273,0.635,0.396,0.955
					l0.095,0.24l0.024,0.061l0.012,0.029l0.006,0.016l0.003,0.008c0.006,0.029-0.009-0.057,0.014,0.068l0.035,0.133l0.137,0.535
					c0.094,0.361,0.145,0.729,0.193,1.1c0.062,0.371,0.085,0.748,0.085,1.128c0.014,0.756-0.034,1.526-0.193,2.286
					c-0.148,0.761-0.386,1.511-0.696,2.242c-0.157,0.363-0.363,0.709-0.549,1.064c-0.214,0.34-0.446,0.672-0.691,0.994
					c-0.513,0.631-1.099,1.219-1.783,1.69c-0.661,0.5-1.433,0.853-2.215,1.123c-0.379,0.148-0.862,0.234-1.288,0.338
					c-0.209,0.041-0.349,0.039-0.527,0.062l-0.609,0.055c-0.817,0.012-1.635-0.027-2.415-0.229c-0.787-0.166-1.524-0.48-2.206-0.855
					c-0.68-0.381-1.286-0.861-1.831-1.379c-0.54-0.523-1.033-1.076-1.45-1.676c-0.226-0.283-0.418-0.59-0.606-0.896
					c-0.211-0.291-0.372-0.61-0.55-0.918c-0.344-0.623-0.643-1.262-0.929-1.908c-0.271-0.651-0.517-1.313-0.753-1.991l-0.198-0.566
					l0.737-0.18c0.715-0.174,1.424-0.369,2.125-0.582c0.697-0.232,1.382-0.496,2.072-0.701l1.02-0.355
					c0.341-0.104,0.681-0.213,1.026-0.301c0.682-0.197,1.357-0.395,2.044-0.57c0.35-0.071,0.675-0.2,1.012-0.303l1.016-0.303
					c0.351-0.078,0.665-0.228,1.002-0.332l1.011-0.334c0.351-0.105,0.641-0.252,0.975-0.371c0.325-0.125,0.649-0.262,0.997-0.375
					c0.347-0.119,0.672-0.33,1.023-0.473c0.344-0.16,0.694-0.312,1.056-0.449l0.164-0.062L35.706,1.717z"/>
			</g>
			<g opacity="0.3">
				<g>
					<path fill="#C3C3C9" d="M36.5,5.146c-0.142-1.138-0.439-2.215-0.859-3.211c-0.878,0.756-1.867,1.422-2.937,2.014
						c0.926,4.279,0.2,8.869-3.304,12.102c4.558-0.61,7.683-5.252,7.13-10.639C36.521,5.322,36.511,5.234,36.5,5.146z"/>
				</g>
			</g>
		</g>
		<g>
			<g>
				<g>
					<path fill="#D8D9DD" d="M10.853,7.621C8.528,7.238,6.354,6.025,4.337,4.6C4.32,4.738,4.304,4.879,4.29,5.016
						c-0.503,5.666,2.322,10.53,6.312,10.864c3.686,0.314,6.895-3.336,7.793-8.354C15.65,7.77,13.969,8.137,10.853,7.621z"/>
					<path fill="#36393F" d="M10.822,7.766c-0.296-0.06-0.591-0.121-0.891-0.164c-0.298-0.077-0.605-0.127-0.912-0.19
						C8.72,7.336,8.411,7.279,8.1,7.219C7.798,7.139,7.488,7.069,7.174,6.998C5.936,6.687,4.691,6.268,3.608,5.631l1.984-0.877
						L5.53,7.799C5.515,8.82,5.515,9.887,5.759,10.922c0.225,1.037,0.733,2.021,1.474,2.767c0.733,0.75,1.709,1.233,2.679,1.303
						c0.24,0.025,0.479,0.018,0.713,0.002l0.379-0.043l0.307-0.074c0.44-0.125,0.853-0.276,1.235-0.504
						c0.774-0.416,1.464-1.029,2.024-1.783c0.576-0.741,1.013-1.608,1.417-2.496c0.399-0.896,0.73-1.839,1.013-2.817l1.521,1.662
						c-1.227-0.027-2.544-0.168-3.868-0.414c-1.322-0.246-2.574-0.551-3.824-0.758L10.822,7.766L10.822,7.766z M10.876,7.475
						c0.312,0.034,0.623,0.071,0.936,0.09c0.312,0.022,0.627,0,0.939-0.015c0.312-0.006,0.624-0.086,0.931-0.131
						c0.307-0.041,0.613-0.145,0.914-0.221c0.602-0.172,1.198-0.391,1.802-0.584c0.609-0.205,1.233-0.371,1.871-0.502l1.713-0.354
						L19.79,7.775c-0.116,1.215-0.412,2.43-0.906,3.582c-0.489,1.153-1.211,2.225-2.106,3.164c-0.903,0.924-2.015,1.729-3.321,2.141
						c-0.651,0.195-1.342,0.283-2.014,0.236c-0.164-0.004-0.357-0.031-0.53-0.051l-0.456-0.093c-0.32-0.075-0.633-0.17-0.931-0.293
						c-1.198-0.494-2.159-1.282-2.945-2.16c-0.791-0.881-1.441-1.852-2.06-2.875c-0.604-1.03-1.122-2.155-1.398-3.35
						C2.987,7.482,2.919,6.873,2.91,6.264c0.001-0.617,0.042-1.248,0.173-1.818l0.493-2.152l1.491,1.275
						c0.444,0.376,0.87,0.779,1.294,1.19c0.433,0.398,0.861,0.816,1.326,1.193c0.464,0.375,0.962,0.711,1.495,0.98
						c0.268,0.121,0.542,0.233,0.821,0.332c0.289,0.088,0.586,0.143,0.88,0.211L10.876,7.475z"/>
				</g>
			</g>
			<g opacity="0.3">
				<g>
					<path fill="#C3C3C9" d="M4.416,4.927C3.852,10.426,6.67,15.209,10.48,15.834c-2.265-2.539-3.12-5.916-3.011-9.321
						C6.427,5.957,5.445,5.258,4.463,4.545C4.447,4.672,4.43,4.797,4.416,4.927z"/>
				</g>
			</g>
		</g>
		<g>
			<g>
				<ellipse fill="#221A15" cx="26.615" cy="8.369" rx="1.302" ry="1.338"/>
			</g>
			<g>
				<ellipse fill="#221A15" cx="26.346" cy="7.838" rx="0.516" ry="0.531"/>
			</g>
		</g>
		<g>
			<g>
				<path fill="#221A15" d="M15.918,9.049c0,0.738-0.583,1.334-1.3,1.334c-0.718,0-1.299-0.596-1.299-1.334
					c0-0.741,0.581-1.34,1.299-1.34C15.335,7.709,15.918,8.307,15.918,9.049z"/>
			</g>
			<g>
				<ellipse fill="#221A15" cx="14.348" cy="8.518" rx="0.516" ry="0.531"/>
			</g>
		</g>
		<g>
			<path fill="#C3C3C9" d="M19.162,3.789c0,0-0.216,2.91,0,3.787c0,0,1.959,1.771,7.056,0.021C31.314,5.852,35.19,3.5,36.25,3.789
				c1.058,0.291,3.267,0.756,3.267,0.756L34.923,0c0,0-12.647,6.752-14.836,6.34C20.087,6.34,19.611,6.17,19.162,3.789z"/>
		</g>
		<g>
			<path fill="#C3C3C9" d="M18.414,4.506c0,0,0.507,2.504,0.376,3.113c-0.137,0.611-4.471,1.385-7.304,0.666
				c-2.834-0.713-7.598-3.74-7.598-3.74L1.846,5.516l3.149-4.438C4.995,1.078,18.115,10.273,18.414,4.506z"/>
		</g>
	</g>
</g>
</svg>
