<?xml version="1.0" encoding="utf-8"?>
<!-- Generator: Adobe Illustrator 16.0.0, SVG Export Plug-In . SVG Version: 6.00 Build 0)  -->
<!DOCTYPE svg PUBLIC "-//W3C//DTD SVG 1.1//EN" "http://www.w3.org/Graphics/SVG/1.1/DTD/svg11.dtd">
<svg version="1.1" id="Layer_1" xmlns="http://www.w3.org/2000/svg" xmlns:xlink="http://www.w3.org/1999/xlink" x="0px" y="0px"
	 width="94.833px" height="18.236px" viewBox="0 0 94.833 18.236" enable-background="new 0 0 94.833 18.236" xml:space="preserve">
<g>
	
		<text transform="matrix(1 0 0 1 42.293 16.1787)" fill="#FFFFFF" stroke="#36393F" stroke-width="1.9843" stroke-miterlimit="10" font-family="'MyriadPro-Regular'" font-size="18.058">GOPA</text>
	<g>
		<g>
			<g>
				<path fill="#D8D9DD" d="M35.558,1.783C31.57,5.355,25.187,7.102,19.14,7.717c1.147,5.158,5.475,8.871,10.047,8.426
					c4.843-0.469,8.121-5.426,7.322-11.068C36.347,3.904,36.016,2.801,35.558,1.783z"/>
				<path fill="#36393F" d="M35.446,2.193c-0.156,0.215-0.312,0.43-0.476,0.635c-0.241,0.299-0.461,0.594-0.745,0.859
					c-0.283,0.27-0.589,0.518-0.895,0.777c-0.307,0.246-0.614,0.547-0.946,0.729c-0.656,0.404-1.306,0.861-2.004,1.195
					c-0.701,0.318-1.404,0.666-2.13,0.922L27.153,7.67c-0.37,0.104-0.733,0.246-1.111,0.307c-0.752,0.146-1.508,0.283-2.274,0.328
					c-0.765,0.045-1.533,0.049-2.293,0.057c-0.765-0.029-1.521-0.041-2.271-0.033l0.539-0.746c0.046,0.32,0.104,0.641,0.167,0.959
					c0.096,0.311,0.177,0.627,0.296,0.93c0.243,0.604,0.545,1.184,0.927,1.709c0.379,0.525,0.807,1.014,1.303,1.418
					c0.478,0.422,1.022,0.758,1.564,1.049c0.267,0.154,0.561,0.254,0.831,0.383l0.846,0.283c0.569,0.143,1.122,0.289,1.68,0.316
					c0.554,0.066,1.104,0.023,1.639-0.045l0.025-0.002l0.012-0.002c-0.181,0.023-0.045,0.006-0.084,0.01h0.008l0.062-0.014
					l0.125-0.027l0.249-0.055c0.155-0.037,0.355-0.068,0.475-0.111c0.22-0.102,0.413-0.133,0.655-0.26
					c0.235-0.121,0.479-0.215,0.694-0.373c0.227-0.131,0.449-0.27,0.653-0.441c0.432-0.303,0.804-0.691,1.183-1.08l0.521-0.637
					c0.15-0.234,0.326-0.453,0.464-0.699c0.292-0.484,0.565-0.996,0.765-1.549c0.206-0.547,0.407-1.115,0.519-1.713
					c0.13-0.592,0.238-1.209,0.267-1.838l0.038-0.475l0.01-0.121c0.021,0.119,0.006,0.027,0.01,0.053V5.242l-0.001-0.016
					l-0.001-0.033l-0.002-0.064l-0.011-0.258c-0.019-0.344-0.026-0.688-0.03-1.035C35.589,3.264,35.503,2.76,35.446,2.193z
					 M35.706,1.717c0.2,0.287,0.409,0.586,0.601,0.9C36.5,2.926,36.717,3.26,36.83,3.574c0.139,0.316,0.273,0.635,0.396,0.955
					l0.095,0.24l0.024,0.061l0.012,0.029l0.006,0.016l0.003,0.008c0.006,0.029-0.009-0.057,0.014,0.068l0.035,0.133l0.137,0.535
					c0.094,0.361,0.145,0.729,0.193,1.1c0.062,0.371,0.085,0.748,0.085,1.127c0.014,0.756-0.034,1.527-0.193,2.287
					c-0.148,0.76-0.386,1.51-0.696,2.242c-0.157,0.363-0.363,0.709-0.549,1.064c-0.214,0.34-0.446,0.672-0.691,0.994
					c-0.513,0.631-1.099,1.219-1.783,1.691c-0.661,0.5-1.433,0.852-2.215,1.123c-0.379,0.148-0.862,0.234-1.288,0.338
					c-0.209,0.041-0.349,0.039-0.527,0.062l-0.609,0.055c-0.817,0.012-1.635-0.027-2.415-0.229c-0.787-0.166-1.524-0.48-2.206-0.855
					c-0.68-0.381-1.286-0.861-1.831-1.379c-0.54-0.523-1.033-1.076-1.45-1.676c-0.226-0.283-0.418-0.59-0.606-0.896
					c-0.211-0.291-0.372-0.611-0.55-0.918c-0.344-0.623-0.643-1.262-0.929-1.908c-0.271-0.652-0.517-1.314-0.753-1.992l-0.198-0.566
					l0.737-0.18c0.715-0.174,1.424-0.369,2.125-0.582c0.697-0.232,1.382-0.496,2.072-0.701l1.02-0.355
					c0.341-0.105,0.681-0.213,1.026-0.301c0.682-0.197,1.357-0.395,2.044-0.57c0.35-0.072,0.675-0.201,1.012-0.303l1.016-0.303
					c0.351-0.078,0.665-0.227,1.002-0.332l1.011-0.334c0.351-0.105,0.641-0.252,0.975-0.371c0.325-0.125,0.649-0.262,0.997-0.375
					c0.347-0.119,0.672-0.33,1.023-0.473c0.344-0.16,0.694-0.312,1.056-0.449l0.164-0.061L35.706,1.717z"/>
			</g>
			<g opacity="0.3">
				<g>
					<path fill="#C3C3C9" d="M36.5,5.146c-0.142-1.137-0.439-2.215-0.859-3.211c-0.878,0.756-1.867,1.422-2.937,2.014
						c0.926,4.279,0.2,8.869-3.304,12.102c4.558-0.611,7.683-5.252,7.13-10.639C36.521,5.322,36.511,5.234,36.5,5.146z"/>
				</g>
			</g>
		</g>
		<g>
			<g>
				<g>
					<path fill="#D8D9DD" d="M10.853,7.621C8.528,7.238,6.354,6.025,4.337,4.6C4.32,4.738,4.304,4.879,4.29,5.016
						c-0.503,5.666,2.322,10.531,6.312,10.865c3.686,0.314,6.895-3.336,7.793-8.355C15.65,7.77,13.969,8.137,10.853,7.621z"/>
					<path fill="#36393F" d="M10.822,7.766c-0.296-0.059-0.591-0.121-0.891-0.164C9.633,7.525,9.326,7.475,9.019,7.412
						C8.72,7.336,8.411,7.279,8.1,7.219c-0.302-0.08-0.612-0.15-0.926-0.221c-1.238-0.311-2.483-0.73-3.566-1.367l1.984-0.877
						L5.53,7.799C5.515,8.82,5.515,9.887,5.759,10.922c0.225,1.037,0.733,2.02,1.474,2.766c0.733,0.75,1.709,1.234,2.679,1.303
						c0.24,0.025,0.479,0.018,0.713,0.002l0.379-0.043l0.307-0.074c0.44-0.125,0.853-0.277,1.235-0.504
						c0.774-0.416,1.464-1.029,2.024-1.783c0.576-0.742,1.013-1.609,1.417-2.496C16.386,9.197,16.717,8.254,17,7.275l1.521,1.662
						c-1.227-0.027-2.544-0.168-3.868-0.414c-1.322-0.246-2.574-0.551-3.824-0.758H10.822z M10.876,7.475
						c0.312,0.035,0.623,0.072,0.936,0.09c0.312,0.023,0.627,0,0.939-0.014c0.312-0.006,0.624-0.086,0.931-0.131
						c0.307-0.041,0.613-0.145,0.914-0.221c0.602-0.172,1.198-0.391,1.802-0.584c0.609-0.205,1.233-0.371,1.871-0.502l1.713-0.354
						l-0.192,2.016c-0.116,1.215-0.412,2.43-0.906,3.582c-0.489,1.154-1.211,2.225-2.106,3.164c-0.903,0.924-2.015,1.73-3.321,2.141
						c-0.651,0.195-1.342,0.283-2.014,0.236c-0.164-0.004-0.357-0.031-0.53-0.051l-0.456-0.092c-0.32-0.076-0.633-0.17-0.931-0.293
						c-1.198-0.494-2.159-1.283-2.945-2.16c-0.791-0.881-1.441-1.852-2.06-2.875c-0.604-1.031-1.122-2.156-1.398-3.35
						C2.987,7.482,2.919,6.873,2.91,6.264c0.001-0.617,0.042-1.248,0.173-1.818l0.493-2.152l1.491,1.275
						C5.511,3.945,5.937,4.348,6.361,4.76c0.433,0.398,0.861,0.816,1.326,1.193c0.464,0.375,0.962,0.711,1.495,0.98
						c0.268,0.121,0.542,0.234,0.821,0.332c0.289,0.088,0.586,0.143,0.88,0.211L10.876,7.475z"/>
				</g>
			</g>
			<g opacity="0.3">
				<g>
					<path fill="#C3C3C9" d="M4.416,4.928C3.852,10.426,6.67,15.209,10.48,15.834c-2.265-2.539-3.12-5.916-3.011-9.322
						C6.427,5.957,5.445,5.258,4.463,4.545C4.447,4.672,4.43,4.797,4.416,4.928z"/>
				</g>
			</g>
		</g>
		<g>
			<g>
				<ellipse fill="#221A15" cx="26.615" cy="8.369" rx="1.302" ry="1.338"/>
			</g>
			<g>
				<ellipse fill="#221A15" cx="26.346" cy="7.838" rx="0.516" ry="0.531"/>
			</g>
		</g>
		<g>
			<g>
				<path fill="#221A15" d="M15.918,9.049c0,0.738-0.583,1.334-1.3,1.334c-0.718,0-1.299-0.596-1.299-1.334
					c0-0.742,0.581-1.34,1.299-1.34C15.335,7.709,15.918,8.307,15.918,9.049z"/>
			</g>
			<g>
				<ellipse fill="#221A15" cx="14.348" cy="8.518" rx="0.516" ry="0.531"/>
			</g>
		</g>
		<g>
			<path fill="#C3C3C9" d="M19.162,3.789c0,0-0.216,2.91,0,3.787c0,0,1.959,1.77,7.056,0.021C31.314,5.852,35.19,3.5,36.25,3.789
				c1.058,0.291,3.267,0.756,3.267,0.756L34.923,0c0,0-12.647,6.752-14.836,6.34C20.087,6.34,19.611,6.17,19.162,3.789z"/>
		</g>
		<g>
			<path fill="#C3C3C9" d="M18.414,4.506c0,0,0.507,2.504,0.376,3.113c-0.137,0.611-4.471,1.385-7.304,0.666
				c-2.834-0.713-7.598-3.74-7.598-3.74L1.846,5.516l3.149-4.438C4.995,1.078,18.115,10.273,18.414,4.506z"/>
		</g>
	</g>
</g>
</svg>
