<?xml version="1.0" encoding="utf-8"?>
<!DOCTYPE svg PUBLIC "-//W3C//DTD SVG 1.1//EN" "http://www.w3.org/Graphics/SVG/1.1/DTD/svg11.dtd">
<svg version="1.1" id="gopa-logo" xmlns="http://www.w3.org/2000/svg" xmlns:xlink="http://www.w3.org/1999/xlink" x="0px" y="0px"
	 width="47.667px" height="16.702px" viewBox="65.938 1.201 47.667 16.702" enable-background="new 65.938 1.201 47.667 16.702"
	 xml:space="preserve">
<g xmlns="http://www.w3.org/2000/svg">

	<g id="gopa-logo-letters" enable-background="new" style="&#10;    stroke: rgb(54, 57, 63);&#10;">
		<path id="gopa-logo-letter-g" fill="none" stroke-width="1.9843" stroke-miterlimit="10" d="M78.258,15.302    c-0.703,0.255-2.094,0.67-3.736,0.67c-1.84,0-3.356-0.471-4.547-1.606c-1.048-1.011-1.697-2.635-1.697-4.53    c0.018-3.629,2.509-6.282,6.589-6.282c1.407,0,2.51,0.309,3.032,0.562L77.52,5.396c-0.649-0.289-1.463-0.523-2.688-0.523    c-2.96,0-4.894,1.841-4.894,4.894c0,3.087,1.859,4.908,4.693,4.908c1.029,0,1.732-0.145,2.096-0.323v-3.63h-2.475V9.456h4.008    v5.847L78.258,15.302L78.258,15.302z"/>
		<path id="gopa-logo-letter-o" fill="none" stroke-width="1.9843" stroke-miterlimit="10" d="M91.062,9.635    c0,4.188-2.547,6.408-5.649,6.408c-3.213,0-5.472-2.491-5.472-6.173c0-3.863,2.4-6.391,5.65-6.391    C88.915,3.48,91.062,6.025,91.062,9.635z M81.622,9.835c0,2.601,1.407,4.93,3.881,4.93c2.49,0,3.897-2.295,3.897-5.057    c0-2.419-1.264-4.943-3.881-4.943C82.92,4.76,81.622,7.163,81.622,9.835z"/>
		<path id="gopa-logo-letter-p" fill="none" stroke-width="1.9843" stroke-miterlimit="10" d="M93.105,3.823    c0.758-0.126,1.752-0.234,3.017-0.234c1.553,0,2.688,0.361,3.41,1.013c0.668,0.576,1.065,1.462,1.065,2.546    c0,1.101-0.326,1.967-0.938,2.599c-0.83,0.885-2.185,1.336-3.72,1.336c-0.469,0-0.901-0.018-1.264-0.106v4.874h-1.57V3.823z     M94.676,9.69c0.344,0.09,0.777,0.126,1.301,0.126c1.896,0,3.051-0.92,3.051-2.602c0-1.604-1.139-2.382-2.87-2.382    c-0.687,0-1.21,0.056-1.48,0.126L94.676,9.69L94.676,9.69z" />
		<path id="gopa-logo-letter-a" fill="none" stroke-width="1.9843" stroke-miterlimit="10" d="M103.165,12.018l-1.265,3.825h-1.625    l4.134-12.164h1.896l4.15,12.164h-1.68l-1.299-3.825H103.165z M107.152,10.791l-1.19-3.502c-0.271-0.794-0.451-1.516-0.631-2.22    h-0.037c-0.181,0.722-0.379,1.462-0.612,2.202l-1.19,3.52H107.152z"/>
	</g>

</g>
</svg>
