<?xml version="1.0" encoding="utf-8"?>
<!-- Generator: Adobe Illustrator 16.0.0, SVG Export Plug-In . SVG Version: 6.00 Build 0)  -->
<!DOCTYPE svg PUBLIC "-//W3C//DTD SVG 1.1//EN" "http://www.w3.org/Graphics/SVG/1.1/DTD/svg11.dtd">
<svg version="1.1" id="Layer_1" xmlns="http://www.w3.org/2000/svg" xmlns:xlink="http://www.w3.org/1999/xlink" x="0px" y="0px"
	 width="47.667px" height="16.702px" viewBox="65.938 1.201 47.667 16.702" enable-background="new 65.938 1.201 47.667 16.702"
	 xml:space="preserve">
<g>
	<g display="none" enable-background="new    ">
		<path display="inline" fill="#FFFFFF" d="M78.258,15.302c-0.703,0.255-2.094,0.67-3.736,0.67c-1.84,0-3.356-0.471-4.547-1.606
			c-1.048-1.011-1.697-2.635-1.697-4.53c0.018-3.629,2.509-6.282,6.589-6.282c1.407,0,2.51,0.309,3.032,0.562L77.52,5.396
			c-0.649-0.289-1.463-0.523-2.688-0.523c-2.96,0-4.894,1.841-4.894,4.894c0,3.087,1.859,4.908,4.693,4.908
			c1.029,0,1.732-0.145,2.096-0.323v-3.63h-2.475V9.456h4.008v5.847L78.258,15.302L78.258,15.302z"/>
		<path display="inline" fill="#FFFFFF" d="M91.062,9.635c0,4.188-2.547,6.408-5.649,6.408c-3.213,0-5.472-2.491-5.472-6.173
			c0-3.863,2.4-6.391,5.65-6.391C88.915,3.48,91.062,6.025,91.062,9.635z M81.622,9.835c0,2.601,1.407,4.93,3.881,4.93
			c2.49,0,3.897-2.295,3.897-5.057c0-2.419-1.264-4.943-3.881-4.943C82.92,4.76,81.622,7.163,81.622,9.835z"/>
		<path display="inline" fill="#FFFFFF" d="M93.105,3.823c0.758-0.126,1.752-0.234,3.017-0.234c1.553,0,2.688,0.361,3.41,1.013
			c0.668,0.576,1.065,1.462,1.065,2.546c0,1.101-0.326,1.967-0.938,2.599c-0.83,0.885-2.185,1.336-3.72,1.336
			c-0.469,0-0.901-0.018-1.264-0.106v4.874h-1.57V3.823z M94.676,9.69c0.344,0.09,0.777,0.126,1.301,0.126
			c1.896,0,3.051-0.92,3.051-2.602c0-1.604-1.139-2.382-2.87-2.382c-0.687,0-1.21,0.056-1.48,0.126L94.676,9.69L94.676,9.69z"/>
		<path display="inline" fill="#FFFFFF" d="M103.165,12.018l-1.265,3.825h-1.625l4.134-12.164h1.896l4.15,12.164h-1.68l-1.299-3.825
			H103.165z M107.152,10.791l-1.19-3.502c-0.271-0.794-0.451-1.516-0.631-2.22h-0.037c-0.181,0.722-0.379,1.462-0.612,2.202
			l-1.19,3.52H107.152z"/>
	</g>
	<g enable-background="new    ">
		<path fill="none" stroke="#36393F" stroke-width="1.9843" stroke-miterlimit="10" d="M78.258,15.302
			c-0.703,0.255-2.094,0.67-3.736,0.67c-1.84,0-3.356-0.471-4.547-1.606c-1.048-1.011-1.697-2.635-1.697-4.53
			c0.018-3.629,2.509-6.282,6.589-6.282c1.407,0,2.51,0.309,3.032,0.562L77.52,5.396c-0.649-0.289-1.463-0.523-2.688-0.523
			c-2.96,0-4.894,1.841-4.894,4.894c0,3.087,1.859,4.908,4.693,4.908c1.029,0,1.732-0.145,2.096-0.323v-3.63h-2.475V9.456h4.008
			v5.847L78.258,15.302L78.258,15.302z"/>
		<path fill="none" stroke="#36393F" stroke-width="1.9843" stroke-miterlimit="10" d="M91.062,9.635
			c0,4.188-2.547,6.408-5.649,6.408c-3.213,0-5.472-2.491-5.472-6.173c0-3.863,2.4-6.391,5.65-6.391
			C88.915,3.48,91.062,6.025,91.062,9.635z M81.622,9.835c0,2.601,1.407,4.93,3.881,4.93c2.49,0,3.897-2.295,3.897-5.057
			c0-2.419-1.264-4.943-3.881-4.943C82.92,4.76,81.622,7.163,81.622,9.835z"/>
		<path fill="none" stroke="#36393F" stroke-width="1.9843" stroke-miterlimit="10" d="M93.105,3.823
			c0.758-0.126,1.752-0.234,3.017-0.234c1.553,0,2.688,0.361,3.41,1.013c0.668,0.576,1.065,1.462,1.065,2.546
			c0,1.101-0.326,1.967-0.938,2.599c-0.83,0.885-2.185,1.336-3.72,1.336c-0.469,0-0.901-0.018-1.264-0.106v4.874h-1.57V3.823z
			 M94.676,9.69c0.344,0.09,0.777,0.126,1.301,0.126c1.896,0,3.051-0.92,3.051-2.602c0-1.604-1.139-2.382-2.87-2.382
			c-0.687,0-1.21,0.056-1.48,0.126L94.676,9.69L94.676,9.69z"/>
		<path fill="none" stroke="#36393F" stroke-width="1.9843" stroke-miterlimit="10" d="M103.165,12.018l-1.265,3.825h-1.625
			l4.134-12.164h1.896l4.15,12.164h-1.68l-1.299-3.825H103.165z M107.152,10.791l-1.19-3.502c-0.271-0.794-0.451-1.516-0.631-2.22
			h-0.037c-0.181,0.722-0.379,1.462-0.612,2.202l-1.19,3.52H107.152z"/>
	</g>
	<g display="none">
		<g display="inline">
			<g>
				<path fill="#D8D9DD" d="M60.893,1.45c-3.988,3.572-10.371,5.319-16.418,5.934c1.146,5.158,5.475,8.871,10.047,8.429
					c4.842-0.472,8.121-5.429,7.321-11.068C61.682,3.571,61.35,2.468,60.893,1.45z"/>
				<path fill="#36393F" d="M60.779,1.86c-0.155,0.215-0.312,0.43-0.475,0.635c-0.242,0.299-0.462,0.594-0.746,0.859
					c-0.283,0.27-0.588,0.518-0.895,0.774c-0.307,0.246-0.614,0.547-0.946,0.729c-0.655,0.403-1.306,0.859-2.004,1.194
					c-0.7,0.316-1.403,0.665-2.13,0.923l-1.098,0.359c-0.369,0.104-0.732,0.246-1.11,0.31c-0.752,0.146-1.508,0.28-2.274,0.328
					c-0.765,0.045-1.533,0.049-2.293,0.057C46.044,8,45.288,7.988,44.538,7.996l0.539-0.746c0.046,0.32,0.104,0.644,0.167,0.959
					c0.096,0.312,0.177,0.627,0.296,0.933c0.243,0.604,0.545,1.184,0.927,1.709c0.379,0.522,0.807,1.014,1.303,1.418
					c0.479,0.422,1.022,0.758,1.564,1.049c0.268,0.151,0.561,0.254,0.831,0.383l0.846,0.283c0.569,0.143,1.122,0.289,1.681,0.313
					c0.554,0.066,1.104,0.023,1.639-0.045l0.025-0.002l0.012-0.002c-0.182,0.023-0.045,0.006-0.084,0.01h0.008l0.062-0.014
					l0.125-0.027l0.248-0.055c0.155-0.037,0.355-0.068,0.476-0.111c0.22-0.102,0.413-0.133,0.655-0.26
					c0.234-0.121,0.479-0.215,0.693-0.373c0.227-0.131,0.449-0.27,0.653-0.438c0.432-0.306,0.804-0.691,1.183-1.08l0.521-0.64
					c0.15-0.231,0.326-0.45,0.464-0.696c0.292-0.484,0.565-0.996,0.765-1.55c0.206-0.549,0.407-1.114,0.52-1.715
					c0.13-0.592,0.238-1.209,0.267-1.838l0.038-0.475l0.01-0.121c0.021,0.119,0.006,0.027,0.01,0.053v-0.01V4.892l-0.002-0.033
					l-0.002-0.064l-0.011-0.258c-0.019-0.344-0.026-0.688-0.03-1.035C60.923,2.931,60.837,2.427,60.779,1.86z M61.04,1.384
					c0.2,0.287,0.409,0.586,0.601,0.9c0.193,0.309,0.41,0.643,0.523,0.957c0.139,0.316,0.273,0.635,0.396,0.955l0.094,0.24
					l0.025,0.061l0.012,0.029l0.006,0.016L62.7,4.55c0.006,0.029-0.009-0.057,0.014,0.068l0.035,0.133l0.137,0.535
					c0.095,0.361,0.146,0.729,0.193,1.1c0.062,0.371,0.085,0.748,0.085,1.13C63.178,8.271,63.13,9.04,62.971,9.8
					c-0.148,0.763-0.386,1.513-0.695,2.242c-0.157,0.363-0.363,0.709-0.549,1.064c-0.215,0.34-0.447,0.672-0.691,0.994
					c-0.514,0.631-1.1,1.219-1.783,1.688c-0.661,0.5-1.434,0.854-2.215,1.123c-0.379,0.148-0.862,0.234-1.288,0.338
					c-0.209,0.041-0.349,0.039-0.526,0.062l-0.609,0.055c-0.817,0.012-1.635-0.027-2.416-0.229c-0.786-0.166-1.523-0.48-2.205-0.855
					c-0.68-0.381-1.286-0.861-1.831-1.379c-0.54-0.523-1.033-1.076-1.45-1.676c-0.227-0.283-0.418-0.59-0.605-0.896
					c-0.211-0.291-0.373-0.608-0.551-0.918c-0.344-0.623-0.643-1.262-0.929-1.908c-0.271-0.649-0.517-1.312-0.753-1.989L43.675,6.95
					l0.737-0.18c0.715-0.174,1.424-0.369,2.125-0.582c0.697-0.232,1.382-0.496,2.072-0.701l1.02-0.355
					c0.342-0.104,0.682-0.213,1.025-0.301c0.683-0.197,1.357-0.395,2.045-0.57c0.35-0.069,0.675-0.198,1.012-0.303l1.016-0.303
					c0.352-0.078,0.666-0.229,1.002-0.332l1.012-0.334c0.351-0.105,0.641-0.252,0.975-0.371c0.325-0.125,0.648-0.262,0.997-0.375
					c0.347-0.119,0.672-0.33,1.022-0.473c0.345-0.16,0.695-0.312,1.057-0.449l0.164-0.062L61.04,1.384z"/>
			</g>
			<g opacity="0.3">
				<g>
					<path fill="#C3C3C9" d="M61.834,4.813c-0.143-1.14-0.439-2.215-0.859-3.211c-0.877,0.756-1.867,1.422-2.937,2.014
						c0.926,4.279,0.2,8.869-3.304,12.102c4.558-0.608,7.683-5.252,7.129-10.639C61.855,4.989,61.846,4.901,61.834,4.813z"/>
				</g>
			</g>
		</g>
		<g display="inline">
			<g>
				<g>
					<path fill="#D8D9DD" d="M36.188,7.288c-2.325-0.383-4.499-1.596-6.517-3.021c-0.017,0.138-0.032,0.278-0.047,0.416
						c-0.503,5.666,2.322,10.528,6.312,10.862c3.687,0.314,6.896-3.336,7.793-8.354C40.984,7.437,39.303,7.804,36.188,7.288z"/>
					<path fill="#36393F" d="M36.156,7.433c-0.297-0.062-0.592-0.121-0.891-0.164c-0.299-0.077-0.605-0.127-0.912-0.19
						c-0.3-0.076-0.608-0.133-0.919-0.193c-0.303-0.079-0.613-0.149-0.927-0.221c-1.238-0.311-2.482-0.729-3.566-1.367l1.984-0.877
						l-0.062,3.045c-0.014,1.021-0.014,2.089,0.229,3.123c0.226,1.037,0.733,2.021,1.475,2.769c0.732,0.75,1.708,1.231,2.679,1.303
						c0.24,0.025,0.479,0.018,0.713,0.002l0.379-0.043l0.307-0.074c0.44-0.125,0.854-0.274,1.235-0.504
						c0.774-0.416,1.464-1.029,2.024-1.783c0.576-0.739,1.013-1.606,1.416-2.496c0.4-0.896,0.73-1.839,1.014-2.815l1.521,1.662
						c-1.228-0.027-2.545-0.168-3.869-0.414c-1.321-0.246-2.573-0.551-3.823-0.758L36.156,7.433L36.156,7.433z M36.21,7.142
						c0.312,0.032,0.623,0.069,0.937,0.09c0.312,0.021,0.627,0,0.938-0.017c0.312-0.006,0.624-0.086,0.931-0.131
						c0.307-0.041,0.613-0.145,0.914-0.221c0.603-0.172,1.198-0.391,1.803-0.584c0.608-0.205,1.232-0.371,1.871-0.502l1.713-0.354
						l-0.192,2.019c-0.116,1.215-0.412,2.43-0.906,3.582c-0.489,1.151-1.211,2.225-2.106,3.164c-0.902,0.924-2.014,1.729-3.32,2.141
						c-0.65,0.195-1.342,0.283-2.014,0.236c-0.164-0.004-0.357-0.031-0.53-0.051l-0.456-0.095c-0.32-0.073-0.633-0.17-0.932-0.293
						c-1.197-0.494-2.158-1.28-2.944-2.16c-0.791-0.881-1.44-1.852-2.06-2.875c-0.604-1.028-1.123-2.153-1.398-3.35
						c-0.137-0.593-0.204-1.202-0.213-1.811c0.001-0.617,0.042-1.248,0.173-1.818l0.493-2.152l1.49,1.275
						c0.445,0.376,0.871,0.779,1.294,1.188c0.434,0.398,0.861,0.816,1.326,1.193c0.465,0.375,0.963,0.711,1.495,0.98
						c0.269,0.119,0.543,0.231,0.821,0.332c0.289,0.088,0.586,0.143,0.88,0.211L36.21,7.142L36.21,7.142z"/>
				</g>
			</g>
			<g opacity="0.3">
				<g>
					<path fill="#C3C3C9" d="M29.75,4.594c-0.564,5.499,2.254,10.282,6.064,10.907c-2.266-2.539-3.12-5.916-3.011-9.319
						c-1.043-0.558-2.024-1.257-3.007-1.97C29.781,4.339,29.764,4.464,29.75,4.594z"/>
				</g>
			</g>
		</g>
		<g display="inline">
			<g>
				<ellipse fill="#221A15" cx="51.949" cy="8.036" rx="1.302" ry="1.338"/>
			</g>
			<g>
				<ellipse fill="#221A15" cx="51.68" cy="7.505" rx="0.516" ry="0.531"/>
			</g>
		</g>
		<g display="inline">
			<g>
				<path fill="#221A15" d="M41.252,8.716c0,0.738-0.583,1.334-1.3,1.334c-0.718,0-1.3-0.596-1.3-1.334c0-0.739,0.582-1.34,1.3-1.34
					C40.669,7.376,41.252,7.974,41.252,8.716z"/>
			</g>
			<g>
				<ellipse fill="#221A15" cx="39.682" cy="8.185" rx="0.516" ry="0.531"/>
			</g>
		</g>
		<g display="inline">
			<path fill="#C3C3C9" d="M44.496,3.456c0,0-0.217,2.91,0,3.787c0,0,1.959,1.771,7.056,0.021c5.097-1.745,8.972-4.098,10.032-3.809
				c1.059,0.291,3.268,0.756,3.268,0.756l-4.595-4.545c0,0-12.647,6.752-14.836,6.34C45.421,6.007,44.945,5.837,44.496,3.456z"/>
		</g>
		<g display="inline">
			<path fill="#C3C3C9" d="M43.748,4.173c0,0,0.507,2.504,0.376,3.113c-0.138,0.611-4.472,1.385-7.304,0.666
				c-2.835-0.713-7.598-3.74-7.598-3.74L27.18,5.183l3.149-4.438C30.329,0.745,43.449,9.94,43.748,4.173z"/>
		</g>
	</g>
</g>
</svg>
